# xmcd
#
# Track frame offsets:
#	150
#	13149
#	21205
#	29983
#	38217
#	59334
#	79115
#	92068
#	102884
#	113864
#	126588
#	144458
#	151235
#	167130
#	174795
#	185564
#	194793
#	206309
#	222654
#	235271
#	245087
#	258279
#	267929
#	276644
#	284341
#	293116
#	301479
#	309425
#
# Disc length: 4364 seconds
#
# Revision: 0
# Processed by: cddbd v1.5.1PL0 Copyright (c) Steve Scherf et al.
# Submitted via: EasyCDDAExtractor 4.6.0.1
#
DISCID=b0110a1c
DTITLE=Zelotes Edmund Toliver  (Bass),Michael Jüttendonk (Klavier), Gästechor 
DTITLE=derAbtei Königsmünster - Laudate Dominum
DYEAR=1998
DGENRE=Gospel
TTITLE0=There´s a metting here tonight
TTITLE1=I´m gonna sing
TTITLE2=Great day
TTITLE3=Kum Ba Yah
TTITLE4=Nobody knows the trouble
TTITLE5=Sometimes I feel
TTITLE6=Somebody´s knockin´at yo´do´
TTITLE7=Ev´ry time I feel the spirit
TTITLE8=On ma´ journey
TTITLE9=Down on me
TTITLE10=Oh,Glory
TTITLE11=I know de  Lord´s laid His hands
TTITLE12=Go down moses
TTITLE13=Joshua fit the battle of Jericho
TTITLE14=Rocka my soul
TTITLE15=I want to be ready
TTITLE16=Swing low, sweet Chariot
TTITLE17=City called heaven
TTITLE18=Roll, Jordin roll
TTITLE19=All night, all day
TTITLE20=Steal away from Jesus
TTITLE21=It´s a me
TTITLE22=He´s got the wholw world in His hands
TTITLE23=Didn´t my Lord
TTITLE24=Ride on, King Jesus
TTITLE25=Lord, Lord, Lord
TTITLE26=Free at last
TTITLE27=Oh happy day
EXTD=
EXTT0=
EXTT1=
EXTT2=
EXTT3=
EXTT4=
EXTT5=
EXTT6=
EXTT7=
EXTT8=
EXTT9=
EXTT10=
EXTT11=
EXTT12=
EXTT13=
EXTT14=
EXTT15=
EXTT16=
EXTT17=
EXTT18=
EXTT19=
EXTT20=
EXTT21=
EXTT22=
EXTT23=
EXTT24=
EXTT25=
EXTT26=
EXTT27=
PLAYORDER=
